<mxfile host="drawio-plugin" modified="2022-02-23T15:37:52.021Z" agent="5.0 (Macintosh; Intel Mac OS X 12_0_1) AppleWebKit/537.36 (KHTML, like Gecko) Chrome/89.0.4389.114 Safari/537.36" etag="nl8DA8JtwjPBTL4T5v9A" version="15.5.4" type="embed"><diagram id="DWjpSvbVxY2pOprUcE6g" name="Page-1"><mxGraphModel dx="1076" dy="623" grid="1" gridSize="10" guides="1" tooltips="1" connect="1" arrows="1" fold="1" page="1" pageScale="1" pageWidth="827" pageHeight="1169" math="0" shadow="0"><root><mxCell id="0"/><mxCell id="1" parent="0"/><mxCell id="3" value="" style="rounded=0;whiteSpace=wrap;html=1;fillColor=none;strokeColor=none;sketch=1;fontFamily=Architects Daughter;fontSource=https%3A%2F%2Ffonts.googleapis.com%2Fcss%3Ffamily%3DArchitects%2BDaughter;" parent="1" vertex="1"><mxGeometry x="56" y="197" width="889" height="337" as="geometry"/></mxCell><mxCell id="WkdalmxvpJmTztUUumEF-3" value="Domain" style="ellipse;whiteSpace=wrap;html=1;verticalAlign=top;sketch=1;fontFamily=Architects Daughter;fontSource=https%3A%2F%2Ffonts.googleapis.com%2Fcss%3Ffamily%3DArchitects%2BDaughter;strokeColor=#FFD966;fillColor=#FFEB99;" parent="1" vertex="1"><mxGeometry x="240" y="210" width="575.5" height="310" as="geometry"/></mxCell><mxCell id="WkdalmxvpJmTztUUumEF-19" style="edgeStyle=orthogonalEdgeStyle;rounded=0;orthogonalLoop=1;jettySize=auto;html=1;startArrow=classic;startFill=1;endArrow=none;endFill=0;dashed=1;exitX=0.5;exitY=0;exitDx=0;exitDy=0;entryX=0.5;entryY=1;entryDx=0;entryDy=0;sketch=1;fontFamily=Architects Daughter;fontSource=https%3A%2F%2Ffonts.googleapis.com%2Fcss%3Ffamily%3DArchitects%2BDaughter;" parent="1" edge="1"><mxGeometry relative="1" as="geometry"><mxPoint x="527.75" y="335" as="sourcePoint"/><Array as="points"/><mxPoint x="527.75" y="300" as="targetPoint"/></mxGeometry></mxCell><mxCell id="10" value="" style="group" vertex="1" connectable="0" parent="1"><mxGeometry x="470" y="335" width="120" height="60" as="geometry"/></mxCell><mxCell id="11" value="Operational &lt;br&gt;Data" style="rounded=0;whiteSpace=wrap;html=1;fontStyle=1;sketch=1;fontFamily=Architects Daughter;fontSource=https%3A%2F%2Ffonts.googleapis.com%2Fcss%3Ffamily%3DArchitects%2BDaughter;align=left;spacingLeft=42;" vertex="1" parent="10"><mxGeometry width="120" height="60" as="geometry"/></mxCell><mxCell id="12" value="" style="shape=image;verticalLabelPosition=bottom;labelBackgroundColor=default;verticalAlign=top;aspect=fixed;imageAspect=0;image=data:image/svg+xml,PHN2ZyB4bWxucz0iaHR0cDovL3d3dy53My5vcmcvMjAwMC9zdmciIHZpZXdCb3g9IjAgMCAyNTAgMjUwIj4mI3hhOyAgJiN4YTs8ZyB0cmFuc2Zvcm09Im1hdHJpeCgxMC40MTY2NjY2NjY2NjY2NjYsMCwwLDEwLjQxNjY2NjY2NjY2NjY2NiwwLDApIj48Zz4mI3hhOyAgICA8cGF0aCBkPSJNMTguMzQsNS41NmMtLjYuMTMtMS4wNS44NS0uNTYsMS4zNGExLjIyLDEuMjIsMCwwLDAsLjUzLjNDMTkuODcsNy41NSwxOS42OSw1LjI5LDE4LjM0LDUuNTZaIiBzdHlsZT0iZmlsbDogIzAwMDAwMDtmaWxsLXJ1bGU6IGV2ZW5vZGQiLz4mI3hhOyAgICA8cGF0aCBkPSJNMjMuOTIsNy41NEE5LjM3LDkuMzcsMCwwLDAsMjIsNi4yNGMuODgtLjU5LDEuNjMtLjg5LDEuNjMtMS42NWEzLjU2LDMuNTYsMCwwLDAtMS0yLjEyYy0uNzEtLjUyLTEuMTktLjExLTIuMTkuNDcsMC0uODQuMS0xLjUzLS41Ny0xLjk1QTQuMzUsNC4zNSwwLDAsMCwxNy40Ny41M2MtMS4wNy4yNS0xLDEuMTgtMSwyLjQ1bC0xLjA4LS42NmMtMS4xMy0uNTgtMiwuNTgtMi4zMSwxLjgtLjI0Ljg5LjEsMS4yMy44OCwxLjcycy4yOC4wOS40MywxYy0xLjg1LDEuMjMtMS42LDEtLjcxLDIuNzhhMy40NiwzLjQ2LDAsMCwwLC44Mi43OSwxLjM5LDEuMzksMCwwLDAsMS40NC0uMTljLjc5LS40OS42OC0uNjYuNjktLjNzLS4wNywxLC4zLDEuMjNjLjU4LjM2LDIuNjguNDksMy4wOC0uMjIuMjEtLjM3LjIzLS4zNy4xNy0xYS4zMi4zMiwwLDAsMC0uNjQuMDZjMCwuNDgsMCwuMzItLjEuNTYtLjI0LjM5LTEuNy0uMTEtMi0uMTUsMC0uMTcsMCwuNiwwLTEuNTVhLjQyLjQyLDAsMCwwLS42Ni0uMzVjLS41LjMzLTEuMywxLTEuNzcsMS4wOHMtLjc2LTEuMjQtLjg3LTEuNDVjLjU0LS4yNCwwLC4xMSwxLjE1LS42M2EuNTYuNTYsMCwwLDAsLjIyLS42NGMtLjIyLS42OS4yNy0xLS4xOS0xLjQyLS44OC0uNy0uNjMtLjUxLTEuMTQtLjg5YTIuODMsMi44MywwLDAsMSwuNTEtMS4wOGMwLS4wNS4wNy0uMTIuMTMtLjA5LDIuMDYsMS4yOSwxLjc2LDEuMjIsMi40Ni45NXMuMzgtMi42NC40OC0yLjY2QTQuMSw0LjEsMCwwLDEsMTkuMjEsMmMuMDYsMi4yLjE3LDIuMjYuNDQsMi40YS41OC41OCwwLDAsMCwuNTgsMGMxLjgxLTEuMTQsMS43LTEuMSwxLjgyLTFzLjMuMzIuNTksMS4yMmMtMS4zNywxLTEuNSwxLTEuNTQsMS4zMS0uMTQsMS0uMy43MSwyLDJhMi40OCwyLjQ4LDAsMCwxLS44MywxLjUxLDEzLjQ5LDEzLjQ5LDAsMCwxLTEuOC0xLjA2LjM2LjM2LDAsMCwwLS40MS42QTEyLjg1LDEyLjg1LDAsMCwwLDIyLDEwLjE4QzIzLDEwLjYsMjQuMzYsOC4zNiwyMy45Miw3LjU0WiIgc3R5bGU9ImZpbGw6ICMwMDAwMDA7ZmlsbC1ydWxlOiBldmVub2RkIi8+JiN4YTsgICAgPHBhdGggZD0iTTUuNzgsMTEuMTNBLjg2Ljg2LDAsMCwwLDUuNTksMTBhLjguOCwwLDAsMC0xLDEuMjRDNSwxMS42Miw1LjQzLDExLjUyLDUuNzgsMTEuMTNaIiBzdHlsZT0iZmlsbDogIzMzOTdGQTtmaWxsLXJ1bGU6IGV2ZW5vZGQiLz4mI3hhOyAgICA8cGF0aCBkPSJNNC42MSwxNi4xYy4zNS40My44MS4zMywxLjE3LS4wNmEuODYuODYsMCwwLDAtLjE5LTEuMThBLjguOCwwLDAsMCw0LjYxLDE2LjFaIiBzdHlsZT0iZmlsbDogIzMzOTdGQTtmaWxsLXJ1bGU6IGV2ZW5vZGQiLz4mI3hhOyAgICA8cGF0aCBkPSJNNC43MSwyMC43NGEuNzIuNzIsMCwwLDAsMS4xNy0uMDYuODYuODYsMCwwLDAtLjE5LTEuMThBLjguOCwwLDAsMCw0LjcxLDIwLjc0WiIgc3R5bGU9ImZpbGw6ICMzMzk3RkE7ZmlsbC1ydWxlOiBldmVub2RkIi8+JiN4YTsgICAgPHBhdGggZD0iTTMuMjQsMTEuMzVhLjg2Ljg2LDAsMCwwLS4xOS0xLjE4LjguOCwwLDAsMC0xLDEuMjRDMi40MiwxMS44NCwyLjg5LDExLjc0LDMuMjQsMTEuMzVaIiBzdHlsZT0iZmlsbDogIzMzOTdGQTtmaWxsLXJ1bGU6IGV2ZW5vZGQiLz4mI3hhOyAgICA8cGF0aCBkPSJNMi4xOCwxNi4wOEEuNzIuNzIsMCwwLDAsMy4zNSwxNmEuODYuODYsMCwwLDAtLjE5LTEuMThBLjguOCwwLDAsMCwyLjE4LDE2LjA4WiIgc3R5bGU9ImZpbGw6ICMzMzk3RkE7ZmlsbC1ydWxlOiBldmVub2RkIi8+JiN4YTsgICAgPHBhdGggZD0iTTIuMjksMjAuNzFjLjM0LjQzLjgxLjMzLDEuMTctLjA1YS44OC44OCwwLDAsMC0uMi0xLjE5QS43OS43OSwwLDAsMCwyLjI5LDIwLjcxWiIgc3R5bGU9ImZpbGw6ICMzMzk3RkE7ZmlsbC1ydWxlOiBldmVub2RkIi8+JiN4YTsgICAgPHBhdGggZD0iTTE0Ljg0LDEzLjA2Yy0uMzMsNi4yNi0uMzcsOC4zMS0uODUsOC43NmEzLjIyLDMuMjIsMCwwLDEtMS40Ni41N2MtLjYyLjA5LS40OS4wNi04LjEzLS4wNS0uNDgsMC0yLjc3LjEyLTMtLjRDMSwyMS4xMywxLDE4LjgsMSwxNy44OGE2LjE4LDYuMTgsMCwwLDAsLjg0LDAsMzguMTksMzguMTksMCwwLDAsNy43LjM2YzEuMTYtLjA5LDQuMzItLjI0LDQuNi0uNjMuMTMtLjIuMTMtLjM2LS4xLS41YTUuNzIsNS43MiwwLDAsMC0xLjYzLjFjLTIuMjQsMC05LjEzLS4xMi0xMS4zNi4wNS0uMSwwLS4wNi41OC0uMTctNi42NywwLTEuMjQuMTYtMS4yMiwwLTEuMzlhLjI4LjI4LDAsMCwwLS4zNSwwQy4xOCw5LjQuMjUsOS42NywwLDE5LjZhNy45Miw3LjkyLDAsMCwwLC4zOSwyLjgzYy41NiwxLjE3LDIuNzMsMS4wNiw0LDEuMDcsNy4zOSwwLDcuNzQuMDUsOC41OC0uMTRhMy43NywzLjc3LDAsMCwwLDEuNzktLjk1Yy43My0uODguNTktMy4xMi43NS05LjMzQS4zNC4zNCwwLDAsMCwxNC44NCwxMy4wNloiIHN0eWxlPSJmaWxsOiAjMDAwMDAwO2ZpbGwtcnVsZTogZXZlbm9kZCIvPiYjeGE7ICAgIDxwYXRoIGQ9Ik0xLjg3LDguNzdhNjEuMTEsNjEuMTEsMCwwLDAsOS4yNC0uMjcuMy4zLDAsMCwwLDAtLjYsMzMuNywzMy43LDAsMCwwLTQuNjUtLjIyYy0yLC4wNi00LjQzLjQtNC42LjQxQS4zNC4zNCwwLDAsMCwxLjg3LDguNzdaIiBzdHlsZT0iZmlsbDogIzAwMDAwMDtmaWxsLXJ1bGU6IGV2ZW5vZGQiLz4mI3hhOyAgICA8cGF0aCBkPSJNMTIuODksMTMuMzZhLjM0LjM0LDAsMCwwLDAtLjY4bC01LjQ0LS4xNGMtMS4yMywwLTUsLjA4LTUuMjkuMTRhLjMuMywwLDAsMC0uMTYuNTdjLjA4LDAsMy43NS40NSw1LjQ0LjQ0QzkuNTgsMTMuNjgsMTEuNDcsMTMuNDksMTIuODksMTMuMzZaIiBzdHlsZT0iZmlsbDogIzAwMDAwMDtmaWxsLXJ1bGU6IGV2ZW5vZGQiLz4mI3hhOyAgPC9nPjwvZz48L3N2Zz4=;" vertex="1" parent="10"><mxGeometry x="8" y="16" width="28" height="28" as="geometry"/></mxCell><mxCell id="13" value="" style="group" vertex="1" connectable="0" parent="1"><mxGeometry x="470" y="240" width="120" height="60" as="geometry"/></mxCell><mxCell id="14" value="Analytics" style="rounded=0;whiteSpace=wrap;html=1;fontStyle=1;sketch=1;fontFamily=Architects Daughter;fontSource=https%3A%2F%2Ffonts.googleapis.com%2Fcss%3Ffamily%3DArchitects%2BDaughter;align=left;spacingLeft=42;" vertex="1" parent="13"><mxGeometry width="120" height="60" as="geometry"/></mxCell><mxCell id="15" value="" style="shape=image;verticalLabelPosition=bottom;labelBackgroundColor=default;verticalAlign=top;aspect=fixed;imageAspect=0;image=data:image/svg+xml,PHN2ZyB4bWxucz0iaHR0cDovL3d3dy53My5vcmcvMjAwMC9zdmciIHZpZXdCb3g9IjAgMCAyNTAgMjUwIj4mI3hhOyAgJiN4YTs8ZyB0cmFuc2Zvcm09Im1hdHJpeCgxMC40MTY2NjY2NjY2NjY2NjYsMCwwLDEwLjQxNjY2NjY2NjY2NjY2NiwwLDApIj48Zz4mI3hhOyAgICA8cGF0aCBkPSJNNC44NiwxNi4yNGE4LjUxLDguNTEsMCwwLDAtMS42OC4xMSwyLjc3LDIuNzcsMCwwLDAtLjcxLjA3LjU5LjU5LDAsMCwwLS4zNi4zNSw2LDYsMCwwLDAtLjIzLDIuMTJjLjA2LDEuNTguNDEsMy40Ni41MSw0LjQzYS4yOC4yOCwwLDAsMC0uMTcuMjguMjkuMjksMCwwLDAsLjMzLjI1Yy4zMSwwLC41OS4xMi44OS4xNGEyLjQxLDIuNDEsMCwwLDAsLjM4LDAsMi4yLDIuMiwwLDAsMCwuMzctLjA2Yy4zLS4wNi41Ny0uMTQuODYtLjIybC4wNywwYS4zMy4zMywwLDAsMCwuMzQtLjMyYy4wNy0uOTUuMTQtMS45LjE4LTIuODUsMC0uNjMuMDYtMS4yNy4wNy0xLjkxLDAtLjIzLjA3LS44LjA2LTEuMjRhMS42NywxLjY3LDAsMCwwLS4xOC0uNzdBMSwxLDAsMCwwLDQuODYsMTYuMjRaTTQuMTQsMjIuOWEyLjU1LDIuNTUsMCwwLDAtLjM5LDAsMi42MywyLjYzLDAsMCwwLS4zOS4wNiwyLjU1LDIuNTUsMCwwLDAtLjM5LjEzYzAtLjg3LS4xMi0yLjI2LS4xMi0zLjU0YTguNjksOC42OSwwLDAsMSwuMTctMmwuMjEsMGMxLjc3LS4wOCwxLjQ1LS40MSwxLjQ5LDEuMjMsMCwuNjMuMDYsMS4yNS4wNywxLjg4LDAsLjgxLDAsMS42MiwwLDIuNDRDNC41OCwyMyw0LjM3LDIyLjkyLDQuMTQsMjIuOVoiIHN0eWxlPSJmaWxsOiAjMzM5N0ZBO2ZpbGwtcnVsZTogZXZlbm9kZCIvPiYjeGE7ICAgIDxwYXRoIGQ9Ik0xMS4yMywxMy40NmExLDEsMCwwLDAtLjc0LS40Miw5LjM2LDkuMzYsMCwwLDAtMS42OC4xMSwzLjIyLDMuMjIsMCwwLDAtLjcxLjA2LjY3LjY3LDAsMCwwLS4zNy4zNSwxMC42LDEwLjYsMCwwLDAtLjIzLDMuMWMuMDcsMi40Ny40NCw1LjYzLjUyLDYuNjZhLjI4LjI4LDAsMCwwLS4xNy4yOC4yOS4yOSwwLDAsMCwuMzMuMjVjLjMxLDAsLjU5LjEyLjg5LjE0YTIuNDEsMi40MSwwLDAsMCwuMzgsMCwyLjIsMi4yLDAsMCwwLC4zNy0uMDZjLjMtLjA2LjU3LS4xNC44Ni0uMjJsLjA3LDBhLjMzLjMzLDAsMCwwLC4zNC0uMzJjLjA2LS45My4xNC0yLjk0LjItNC43Ny4wNS0xLjMxLjA4LTIuNTMuMDgtMy4xOSwwLS4yNy4wNi0xLDAtMS40NEExLjMsMS4zLDAsMCwwLDExLjIzLDEzLjQ2Wk05Ljc3LDIyLjlhMi41NSwyLjU1LDAsMCwwLS4zOSwwLDIuNjMsMi42MywwLDAsMC0uMzkuMDYsMi41NSwyLjU1LDAsMCwwLS4zOS4xM2MwLTEuMjItLjE0LTQuMTItLjEtNi40MmExMy44MywxMy44MywwLDAsMSwuMTctMi4zNWwuMTksMGMxLjc1LS4wNywxLjQ2LS40MSwxLjQ2LDEuMjMsMCwuNzkuMDcsMi4zNy4wOSw0LDAsMS4zNiwwLDIuNzEsMCwzLjU3QzEwLjIyLDIzLDEwLDIyLjkyLDkuNzcsMjIuOVoiIHN0eWxlPSJmaWxsOiAjMzM5N0ZBO2ZpbGwtcnVsZTogZXZlbm9kZCIvPiYjeGE7ICAgIDxwYXRoIGQ9Ik0xNi4xMiwxNi4yNGE4LjUxLDguNTEsMCwwLDAtMS42OC4xMSwyLjc3LDIuNzcsMCwwLDAtLjcxLjA3LjU5LjU5LDAsMCwwLS4zNi4zNSw2LDYsMCwwLDAtLjIzLDIuMTJjLjA2LDEuNTguNDEsMy40Ni41MSw0LjQzYS4yNy4yNywwLDAsMC0uMTcuMjguMjkuMjksMCwwLDAsLjMzLjI1Yy4zMSwwLC41OC4xMi44OS4xNGEyLjQxLDIuNDEsMCwwLDAsLjM4LDAsMi4zOCwyLjM4LDAsMCwwLC4zNy0uMDZjLjMtLjA2LjU3LS4xNC44Ni0uMjJsLjA3LDBhLjMzLjMzLDAsMCwwLC4zNC0uMzJjLjA3LS45NS4xNC0xLjkuMTgtMi44NSwwLS42My4wNi0xLjI3LjA3LTEuOTEsMC0uMjMuMDctLjguMDUtMS4yNGExLjY4LDEuNjgsMCwwLDAtLjE3LS43N0ExLDEsMCwwLDAsMTYuMTIsMTYuMjRaTTE1LjQsMjIuOWEyLjY4LDIuNjgsMCwwLDAtLjQsMCwyLjUsMi41LDAsMCwwLS4zOC4wNiwyLjU1LDIuNTUsMCwwLDAtLjM5LjEzYzAtLjg3LS4xMy0yLjI2LS4xMi0zLjU0YTguNjksOC42OSwwLDAsMSwuMTctMmwuMjEsMGMxLjc3LS4wOCwxLjQzLS40MywxLjQ5LDEuMjMsMCwuNjMuMDYsMS4yNS4wNywxLjg4LDAsLjgxLDAsMS42MiwwLDIuNDRDMTUuODQsMjMsMTUuNjMsMjIuOTIsMTUuNCwyMi45WiIgc3R5bGU9ImZpbGw6ICMzMzk3RkE7ZmlsbC1ydWxlOiBldmVub2RkIi8+JiN4YTsgICAgPHBhdGggZD0iTTIyLjY1LDEwLjE1YTEuMywxLjMsMCwwLDAtLjE2LS41NywxLDEsMCwwLDAtLjc0LS40Miw5LjI5LDkuMjksMCwwLDAtMS42OC4xMSwzLjIyLDMuMjIsMCwwLDAtLjcxLjA2LjYyLjYyLDAsMCwwLS4zNy4zNiwxNy4zMywxNy4zMywwLDAsMC0uMjQsNC4yNWMuMDgsMy41Ni40NSw4LjI0LjUzLDkuMzhhLjI2LjI2LDAsMCwwLS4xNy4yOC4yOS4yOSwwLDAsMCwuMzIuMjVjLjMyLDAsLjU5LjEyLjkuMTRhMi40MSwyLjQxLDAsMCwwLC4zOCwwLDIuMzgsMi4zOCwwLDAsMCwuMzctLjA2Yy4zLS4wNi41Ny0uMTQuODYtLjIybC4wNywwYS4zMy4zMywwLDAsMCwuMzQtLjMyYzAtLjkxLjE1LTQuMTkuMjEtNy4xLjA1LTIuMTMuMDgtNC4wNy4wOC00Ljc0QTEzLjM1LDEzLjM1LDAsMCwwLDIyLjY1LDEwLjE1Wk0yMSwyMi45YTIuNjgsMi42OCwwLDAsMC0uNCwwLDIuNjMsMi42MywwLDAsMC0uMzkuMDYsMi44NCwyLjg0LDAsMCwwLS4zOC4xM2MwLTEuNDQtLjEzLTUuNzktLjA5LTkuMTNhMjguNDYsMjguNDYsMCwwLDEsLjE3LTMuNTJsLjE3LDBjMS43Ny0uMDcsMS40Ny0uMzMsMS40NSwxLjIzLDAsLjkxLjA4LDQuMTguMTEsNy4wOCwwLDEuOCwwLDMuNDUsMCw0LjMyQzIxLjQ3LDIzLDIxLjI2LDIyLjkyLDIxLDIyLjlaIiBzdHlsZT0iZmlsbDogIzMzOTdGQTtmaWxsLXJ1bGU6IGV2ZW5vZGQiLz4mI3hhOyAgICA8cGF0aCBkPSJNMTkuNjcsMy40OWExLjY1LDEuNjUsMCwwLDAsLjgyLjIsMi4xMSwyLjExLDAsMCwwLC41LDAsNC4wNiw0LjA2LDAsMCwwLC42My0uMjQuMzEuMzEsMCwwLDAsLjE4LS4yMSwxLjUzLDEuNTMsMCwwLDAsLjcxLTIsMS42NywxLjY3LDAsMCwwLTIuMjctMUEyLjM4LDIuMzgsMCwwLDAsMTksMmExLjc5LDEuNzksMCwwLDAsLjE3LjksMTMuMzIsMTMuMzIsMCwwLDAtMS4wOCwzLjE0Yy0uMTEuNDQtLjIyLjg4LS4zNSwxLjNzLS4xOC41NS0uMy44QTMuMTMsMy4xMywwLDAsMSwxNi4xOSw5LjZhMS42MSwxLjYxLDAsMCwwLTEuNzktLjMsMS4zMSwxLjMxLDAsMCwwLS4yNC4xN2MtLjI3LS40Ny0uNDYtLjk0LS42OS0xLjRhNS45Miw1LjkyLDAsMCwwLS42OC0xQTMuOTEsMy45MSwwLDAsMCwxMSw1LjkzaDBhMS43LDEuNywwLDAsMCwuMS0xLjUxLDEuNjcsMS42NywwLDAsMC0yLjI3LTFBMi40MSwyLjQxLDAsMCwwLDcuNSw1LjNhMS44MSwxLjgxLDAsMCwwLC4wNi41N0g3LjQ4YTUuNzEsNS43MSwwLDAsMC0xLjY1LDEsNS4xMiw1LjEyLDAsMCwwLS41OS41NSw3LjUyLDcuNTIsMCwwLDAtLjUuNjJjLS4zLjQzLS41My44OC0uNzcsMS4zYTEuNjUsMS42NSwwLDAsMC0xLjM2LDAsMi4zOCwyLjM4LDAsMCwwLTEuMjgsMS44OSwxLjQ1LDEuNDUsMCwwLDAsMS41MywxLjY2LDIuMDcsMi4wNywwLDAsMCwuNSwwQTMuNzEsMy43MSwwLDAsMCw0LDEyLjU2YS4yOS4yOSwwLDAsMCwuMTgtLjIxLDEuNTEsMS41MSwwLDAsMCwuNzEtMkEyLjA3LDIuMDcsMCwwLDAsNC41LDkuN2MuNC0uMzguODItLjc4LDEuMjMtMS4yMS4yMi0uMjMuNDQtLjQ4LjY1LS43MnMuNDItLjQ5LjY1LS43MWE1LjcyLDUuNzIsMCwwLDEsLjczLS41OXMwLDAsLjA2LDBBMS41NSwxLjU1LDAsMCwwLDksN2EyLjA3LDIuMDcsMCwwLDAsLjUsMCw0LjE2LDQuMTYsMCwwLDAsLjY0LS4yNC4zLjMsMCwwLDAsLjE3LS4yMSwxLjU5LDEuNTksMCwwLDAsLjI2LS4xNC4yNC4yNCwwLDAsMCwuMTQuMTQsMy45MSwzLjkxLDAsMCwxLC42OC41OCw1LjIzLDUuMjMsMCwwLDEsLjQxLjU1Yy4xNC4yLjI3LjM5LjQyLjU4YTE2LDE2LDAsMCwwLDEuNCwxLjc4LDIuMzEsMi4zMSwwLDAsMC0uNTMsMS4yNSwxLjQ1LDEuNDUsMCwwLDAsMS41NCwxLjY2LDIsMiwwLDAsMCwuNDksMCw0LjE2LDQuMTYsMCwwLDAsLjY0LS4yNC4zLjMsMCwwLDAsLjE3LS4yMSwxLjUxLDEuNTEsMCwwLDAsLjcxLTIsMSwxLDAsMCwwLS4wOC0uMTgsMy44LDMuOCwwLDAsMCwxLjY4LTEuNDgsNS4yNyw1LjI3LDAsMCwwLC40Ni0uOTIsOS40LDkuNCwwLDAsMCwuMzktMS40M0EyMC43MiwyMC43MiwwLDAsMSwxOS42NywzLjQ5Wm0uNDMtMS42OGExLjM1LDEuMzUsMCwwLDEsLjYyLS42Ny42OS42OSwwLDAsMSwxLC4zOS43OC43OCwwLDAsMS0uMzMsMS4xNC4zNC4zNCwwLDAsMC0uMjEuMjhMMjEsM2ExLjM1LDEuMzUsMCwwLDEtLjQsMCwuNjYuNjYsMCwwLDEtLjYtLjU5QTEuMTIsMS4xMiwwLDAsMSwyMC4xLDEuODFabS0xNi4zOSwxMGEuMzQuMzQsMCwwLDAtLjIxLjI4bC0uMTYsMGExLjMzLDEuMzMsMCwwLDEtLjQsMCwuNjcuNjcsMCwwLDEtLjYxLS41OEExLjI0LDEuMjQsMCwwLDEsMi40NywxMWExLjQ0LDEuNDQsMCwwLDEsLjYyLS42Ny43MS43MSwwLDAsMSwxLC4zOUEuNzguNzgsMCwwLDEsMy43MSwxMS44MlptNi4xNy01LjlhLjM2LjM2LDAsMCwwLS4yMS4yOGwtLjE2LDBhMS4zMywxLjMzLDAsMCwxLS40LDAsLjY3LjY3LDAsMCwxLS42MS0uNTgsMS4yNCwxLjI0LDAsMCwxLC4xNC0uNTgsMS40OSwxLjQ5LDAsMCwxLC42Mi0uNjcuNzEuNzEsMCwwLDEsMSwuMzlBLjc4Ljc4LDAsMCwxLDkuODgsNS45MlptNS42Myw1LjlhLjM3LjM3LDAsMCwwLS4yMi4yOGwtLjE2LDBhMS4zNCwxLjM0LDAsMCwxLS40LDAsLjY3LjY3LDAsMCwxLS42MS0uNTgsMS4yNCwxLjI0LDAsMCwxLC4xNC0uNTgsMS40OSwxLjQ5LDAsMCwxLC42Mi0uNjcuNzEuNzEsMCwwLDEsMSwuMzlBLjc4Ljc4LDAsMCwxLDE1LjUxLDExLjgyWiIgc3R5bGU9ImZpbGw6ICMwMDAwMDA7ZmlsbC1ydWxlOiBldmVub2RkIi8+JiN4YTsgIDwvZz48L2c+PC9zdmc+;" vertex="1" parent="13"><mxGeometry x="9.25" y="15" width="28" height="28" as="geometry"/></mxCell></root></mxGraphModel></diagram></mxfile>